<svg xmlns="http://www.w3.org/2000/svg" width="211" height="211" fill="none"><path fill="#090909" d="M190 164.589h-12.706v12.705h-12.705V190H20.815V46.226H33.52V33.519v.002h12.706V20.813H190z"/><circle cx="105.742" cy="105.742" r="31.694" stroke="#fff" stroke-dasharray="1.22 12.22" stroke-width="16.859"/><circle cx="105.742" cy="105.742" r="56.474" stroke="#fff" stroke-dasharray="1.22 12.22" stroke-width=".733"/><rect width="26.749" height="26.749" x="119.116" y="92.367" fill="#393838" rx="13.374" transform="rotate(90 119.116 92.367)"/><path fill="url(#a)" stroke="#FA5DAE" stroke-width=".993" d="M114.725 105.42c0 1.822-1.056 3.421-2.66 4.544-1.606 1.124-3.798 1.804-6.195 1.804s-4.59-.68-6.196-1.804c-1.604-1.123-2.659-2.722-2.659-4.544s1.055-3.421 2.66-4.544c1.605-1.124 3.797-1.803 6.195-1.803 2.397 0 4.589.68 6.195 1.803 1.604 1.123 2.66 2.722 2.66 4.544Z"/><rect width="3.344" height="8.359" x="104.07" y="101.562" fill="#000" rx="1.672"/><path stroke="#000" d="M10.5 10.5h190v190h-190z"/><path stroke="#000" d="M.5.5h190v190H.5z"/><path stroke="#000" d="M20.5 20.5h190v190h-190z"/><defs><linearGradient id="a" x1="114.229" x2="97.511" y1="105.42" y2="105.42" gradientUnits="userSpaceOnUse"><stop stop-color="#D9D9D9"/><stop offset="1" stop-color="#FA5DAE"/></linearGradient></defs></svg>